<svg xmlns="http://www.w3.org/2000/svg" viewBox="0 0 120 120">
  <!-- 13 capellini strands — angel hair, noticeably thinner than spaghetti -->
  <rect x="4"  y="2" width="5" height="116" rx="2.5" fill="#D97706"/>
  <rect x="13" y="2" width="5" height="116" rx="2.5" fill="#F59E0B"/>
  <rect x="22" y="2" width="5" height="116" rx="2.5" fill="#D97706"/>
  <rect x="31" y="2" width="5" height="116" rx="2.5" fill="#F59E0B"/>
  <rect x="40" y="2" width="5" height="116" rx="2.5" fill="#D97706"/>
  <rect x="49" y="2" width="5" height="116" rx="2.5" fill="#F59E0B"/>
  <rect x="58" y="2" width="5" height="116" rx="2.5" fill="#D97706"/>
  <rect x="67" y="2" width="5" height="116" rx="2.5" fill="#F59E0B"/>
  <rect x="76" y="2" width="5" height="116" rx="2.5" fill="#D97706"/>
  <rect x="85" y="2" width="5" height="116" rx="2.5" fill="#F59E0B"/>
  <rect x="94" y="2" width="5" height="116" rx="2.5" fill="#D97706"/>
  <rect x="103" y="2" width="5" height="116" rx="2.5" fill="#F59E0B"/>
  <rect x="112" y="2" width="5" height="116" rx="2.5" fill="#D97706"/>
</svg>
