<svg xmlns="http://www.w3.org/2000/svg" viewBox="0 0 120 120">
  <!-- Scattered short thimble/cylinder shapes -->

  <!-- Row 1 -->
  <rect x="6"  y="10" width="20" height="14" rx="6" fill="#F59E0B"/>
  <ellipse cx="16" cy="10" rx="8" ry="4"  fill="#92400E" opacity="0.75"/>
  <ellipse cx="16" cy="24" rx="8" ry="4"  fill="#D97706" opacity="0.45"/>

  <rect x="34" y="4"  width="20" height="14" rx="6" fill="#D97706"/>
  <ellipse cx="44" cy="4"  rx="8" ry="4" fill="#92400E" opacity="0.75"/>
  <ellipse cx="44" cy="18" rx="8" ry="4" fill="#D97706" opacity="0.45"/>

  <rect x="62" y="10" width="20" height="14" rx="6" fill="#F59E0B"/>
  <ellipse cx="72" cy="10" rx="8" ry="4"  fill="#92400E" opacity="0.75"/>
  <ellipse cx="72" cy="24" rx="8" ry="4"  fill="#D97706" opacity="0.45"/>

  <rect x="90" y="4"  width="20" height="14" rx="6" fill="#D97706"/>
  <ellipse cx="100" cy="4"  rx="8" ry="4" fill="#92400E" opacity="0.75"/>
  <ellipse cx="100" cy="18" rx="8" ry="4" fill="#D97706" opacity="0.45"/>

  <!-- Row 2 -->
  <rect x="6"  y="42" width="20" height="14" rx="6" fill="#D97706"/>
  <ellipse cx="16" cy="42" rx="8" ry="4"  fill="#92400E" opacity="0.75"/>
  <ellipse cx="16" cy="56" rx="8" ry="4"  fill="#D97706" opacity="0.45"/>

  <rect x="34" y="36" width="20" height="14" rx="6" fill="#F59E0B"/>
  <ellipse cx="44" cy="36" rx="8" ry="4" fill="#92400E" opacity="0.75"/>
  <ellipse cx="44" cy="50" rx="8" ry="4" fill="#D97706" opacity="0.45"/>

  <rect x="62" y="42" width="20" height="14" rx="6" fill="#D97706"/>
  <ellipse cx="72" cy="42" rx="8" ry="4"  fill="#92400E" opacity="0.75"/>
  <ellipse cx="72" cy="56" rx="8" ry="4"  fill="#D97706" opacity="0.45"/>

  <rect x="90" y="36" width="20" height="14" rx="6" fill="#F59E0B"/>
  <ellipse cx="100" cy="36" rx="8" ry="4" fill="#92400E" opacity="0.75"/>
  <ellipse cx="100" cy="50" rx="8" ry="4" fill="#D97706" opacity="0.45"/>

  <!-- Row 3 -->
  <rect x="6"  y="74" width="20" height="14" rx="6" fill="#F59E0B"/>
  <ellipse cx="16" cy="74" rx="8" ry="4"  fill="#92400E" opacity="0.75"/>

  <rect x="34" y="68" width="20" height="14" rx="6" fill="#D97706"/>
  <ellipse cx="44" cy="68" rx="8" ry="4" fill="#92400E" opacity="0.75"/>

  <rect x="62" y="74" width="20" height="14" rx="6" fill="#F59E0B"/>
  <ellipse cx="72" cy="74" rx="8" ry="4"  fill="#92400E" opacity="0.75"/>

  <rect x="90" y="68" width="20" height="14" rx="6" fill="#D97706"/>
  <ellipse cx="100" cy="68" rx="8" ry="4" fill="#92400E" opacity="0.75"/>

  <!-- Row 4 -->
  <rect x="6"  y="100" width="20" height="14" rx="6" fill="#D97706"/>
  <ellipse cx="16" cy="100" rx="8" ry="4"  fill="#92400E" opacity="0.75"/>

  <rect x="34" y="96" width="20" height="14" rx="6" fill="#F59E0B"/>
  <ellipse cx="44" cy="96"  rx="8" ry="4" fill="#92400E" opacity="0.75"/>

  <rect x="62" y="100" width="20" height="14" rx="6" fill="#D97706"/>
  <ellipse cx="72" cy="100" rx="8" ry="4"  fill="#92400E" opacity="0.75"/>

  <rect x="90" y="96" width="20" height="14" rx="6" fill="#F59E0B"/>
  <ellipse cx="100" cy="96"  rx="8" ry="4" fill="#92400E" opacity="0.75"/>
</svg>
