<svg xmlns="http://www.w3.org/2000/svg" viewBox="0 0 120 120">
  <!-- 5 fettuccine ribbons — wide, flat, with a gentle S-wave (filled closed paths) -->
  <!-- Each ribbon sways ±4px, width = 14px -->

  <!-- Ribbon 1 (left=4, right=18) -->
  <path d="M4,0 Q8,20 4,40 Q0,60 4,80 Q8,100 4,120
           L18,120 Q22,100 18,80 Q14,60 18,40 Q22,20 18,0 Z" fill="#D97706"/>
  <path d="M6,0 Q10,20 6,40 Q2,60 6,80 Q10,100 6,120
           L9,120 Q13,100 9,80 Q5,60 9,40 Q13,20 9,0 Z" fill="#FBBF24" opacity="0.45"/>

  <!-- Ribbon 2 (left=26, right=40) -->
  <path d="M26,0 Q30,20 26,40 Q22,60 26,80 Q30,100 26,120
           L40,120 Q44,100 40,80 Q36,60 40,40 Q44,20 40,0 Z" fill="#F59E0B"/>
  <path d="M28,0 Q32,20 28,40 Q24,60 28,80 Q32,100 28,120
           L31,120 Q35,100 31,80 Q27,60 31,40 Q35,20 31,0 Z" fill="#FDE68A" opacity="0.45"/>

  <!-- Ribbon 3 (left=48, right=62) -->
  <path d="M48,0 Q52,20 48,40 Q44,60 48,80 Q52,100 48,120
           L62,120 Q66,100 62,80 Q58,60 62,40 Q66,20 62,0 Z" fill="#D97706"/>
  <path d="M50,0 Q54,20 50,40 Q46,60 50,80 Q54,100 50,120
           L53,120 Q57,100 53,80 Q49,60 53,40 Q57,20 53,0 Z" fill="#FBBF24" opacity="0.45"/>

  <!-- Ribbon 4 (left=70, right=84) -->
  <path d="M70,0 Q74,20 70,40 Q66,60 70,80 Q74,100 70,120
           L84,120 Q88,100 84,80 Q80,60 84,40 Q88,20 84,0 Z" fill="#F59E0B"/>
  <path d="M72,0 Q76,20 72,40 Q68,60 72,80 Q76,100 72,120
           L75,120 Q79,100 75,80 Q71,60 75,40 Q79,20 75,0 Z" fill="#FDE68A" opacity="0.45"/>

  <!-- Ribbon 5 (left=92, right=106) -->
  <path d="M92,0 Q96,20 92,40 Q88,60 92,80 Q96,100 92,120
           L106,120 Q110,100 106,80 Q102,60 106,40 Q110,20 106,0 Z" fill="#D97706"/>
  <path d="M94,0 Q98,20 94,40 Q90,60 94,80 Q98,100 94,120
           L97,120 Q101,100 97,80 Q93,60 97,40 Q101,20 97,0 Z" fill="#FBBF24" opacity="0.45"/>
</svg>
