<svg xmlns="http://www.w3.org/2000/svg" viewBox="0 0 120 120">
  <!-- Flat ribbons with wavy / ruffled edges on both sides characteristic of mafaldine -->

  <!-- Ribbon 1 -->
  <path d="
    M6,0 Q9,8 6,16 Q3,24 6,32 Q9,40 6,48 Q3,56 6,64 Q9,72 6,80 Q3,88 6,96 Q9,104 6,112 Q3,120 6,120
    L18,120
    Q21,112 18,104 Q15,96 18,88 Q21,80 18,72 Q15,64 18,56 Q21,48 18,40 Q15,32 18,24 Q21,16 18,8 Q15,0 18,0
    Z" fill="#D97706"/>

  <!-- Ribbon 2 -->
  <path d="
    M32,0 Q35,8 32,16 Q29,24 32,32 Q35,40 32,48 Q29,56 32,64 Q35,72 32,80 Q29,88 32,96 Q35,104 32,112 Q29,120 32,120
    L44,120
    Q47,112 44,104 Q41,96 44,88 Q47,80 44,72 Q41,64 44,56 Q47,48 44,40 Q41,32 44,24 Q47,16 44,8 Q41,0 44,0
    Z" fill="#F59E0B"/>

  <!-- Ribbon 3 -->
  <path d="
    M58,0 Q61,8 58,16 Q55,24 58,32 Q61,40 58,48 Q55,56 58,64 Q61,72 58,80 Q55,88 58,96 Q61,104 58,112 Q55,120 58,120
    L70,120
    Q73,112 70,104 Q67,96 70,88 Q73,80 70,72 Q67,64 70,56 Q73,48 70,40 Q67,32 70,24 Q73,16 70,8 Q67,0 70,0
    Z" fill="#D97706"/>

  <!-- Ribbon 4 -->
  <path d="
    M84,0 Q87,8 84,16 Q81,24 84,32 Q87,40 84,48 Q81,56 84,64 Q87,72 84,80 Q81,88 84,96 Q87,104 84,112 Q81,120 84,120
    L96,120
    Q99,112 96,104 Q93,96 96,88 Q99,80 96,72 Q93,64 96,56 Q99,48 96,40 Q93,32 96,24 Q99,16 96,8 Q93,0 96,0
    Z" fill="#F59E0B"/>

  <!-- Ribbon 5 — right edge waves between x=116 (in) and x=120 (out) -->
  <path d="
    M108,0 Q111,8 108,16 Q105,24 108,32 Q111,40 108,48 Q105,56 108,64 Q111,72 108,80 Q105,88 108,96 Q111,104 108,112 Q105,120 108,120
    L120,120
    Q117,112 120,104 Q116,96 120,88 Q117,80 120,72 Q116,64 120,56 Q117,48 120,40 Q116,32 120,24 Q117,16 120,8 Q116,0 120,0
    Z" fill="#D97706"/>
</svg>
