<svg xmlns="http://www.w3.org/2000/svg" viewBox="0 0 120 120">
  <!-- 8 round spaghetti strands (thin, fully round cross-section) -->
  <rect x="6"  y="4" width="9" height="112" rx="4.5" fill="#D97706"/>
  <rect x="20" y="4" width="9" height="112" rx="4.5" fill="#F59E0B"/>
  <rect x="34" y="4" width="9" height="112" rx="4.5" fill="#D97706"/>
  <rect x="48" y="4" width="9" height="112" rx="4.5" fill="#F59E0B"/>
  <rect x="62" y="4" width="9" height="112" rx="4.5" fill="#D97706"/>
  <rect x="76" y="4" width="9" height="112" rx="4.5" fill="#F59E0B"/>
  <rect x="90" y="4" width="9" height="112" rx="4.5" fill="#D97706"/>
  <rect x="104" y="4" width="9" height="112" rx="4.5" fill="#F59E0B"/>
  <!-- Highlight strip on each strand to show roundness -->
  <rect x="8"  y="4" width="3" height="112" rx="1.5" fill="#FBBF24" opacity="0.55"/>
  <rect x="22" y="4" width="3" height="112" rx="1.5" fill="#FBBF24" opacity="0.55"/>
  <rect x="36" y="4" width="3" height="112" rx="1.5" fill="#FBBF24" opacity="0.55"/>
  <rect x="50" y="4" width="3" height="112" rx="1.5" fill="#FBBF24" opacity="0.55"/>
  <rect x="64" y="4" width="3" height="112" rx="1.5" fill="#FBBF24" opacity="0.55"/>
  <rect x="78" y="4" width="3" height="112" rx="1.5" fill="#FBBF24" opacity="0.55"/>
  <rect x="92" y="4" width="3" height="112" rx="1.5" fill="#FBBF24" opacity="0.55"/>
  <rect x="106" y="4" width="3" height="112" rx="1.5" fill="#FBBF24" opacity="0.55"/>
</svg>
