<svg xmlns="http://www.w3.org/2000/svg" viewBox="0 0 120 120">
  <!-- 4 tortellini — belly-button ring pasta, navel void clearly visible -->

  <!-- Top-left -->
  <path d="M14 35 Q14 14 35 14 Q50 14 54 28 Q50 42 35 42 Q20 42 14 35Z"
        fill="#F59E0B" stroke="#92400E" stroke-width="1.5"/>
  <!-- Inner navel void — dark so it reads clearly as a hole -->
  <ellipse cx="34" cy="28" rx="8" ry="6" fill="#78350F"/>
  <!-- Pinched seam tail -->
  <path d="M14 35 Q8 38 12 44 Q20 42 14 35Z" fill="#D97706"/>
  <!-- Seam highlight -->
  <path d="M14 35 Q10 36 12 40" stroke="#FBBF24" stroke-width="1" fill="none" opacity="0.5"/>

  <!-- Top-right -->
  <path d="M68 35 Q68 14 89 14 Q104 14 108 28 Q104 42 89 42 Q74 42 68 35Z"
        fill="#D97706" stroke="#92400E" stroke-width="1.5"/>
  <ellipse cx="88" cy="28" rx="8" ry="6" fill="#78350F"/>
  <path d="M68 35 Q62 38 66 44 Q74 42 68 35Z" fill="#F59E0B"/>
  <path d="M68 35 Q64 36 66 40" stroke="#FBBF24" stroke-width="1" fill="none" opacity="0.5"/>

  <!-- Bottom-left -->
  <path d="M14 89 Q14 68 35 68 Q50 68 54 82 Q50 96 35 96 Q20 96 14 89Z"
        fill="#F59E0B" stroke="#92400E" stroke-width="1.5"/>
  <ellipse cx="34" cy="82" rx="8" ry="6" fill="#78350F"/>
  <path d="M14 89 Q8 92 12 98 Q20 96 14 89Z" fill="#D97706"/>
  <path d="M14 89 Q10 90 12 94" stroke="#FBBF24" stroke-width="1" fill="none" opacity="0.5"/>

  <!-- Bottom-right -->
  <path d="M68 89 Q68 68 89 68 Q104 68 108 82 Q104 96 89 96 Q74 96 68 89Z"
        fill="#D97706" stroke="#92400E" stroke-width="1.5"/>
  <ellipse cx="88" cy="82" rx="8" ry="6" fill="#78350F"/>
  <path d="M68 89 Q62 92 66 98 Q74 96 68 89Z" fill="#F59E0B"/>
  <path d="M68 89 Q64 90 66 94" stroke="#FBBF24" stroke-width="1" fill="none" opacity="0.5"/>
</svg>
