<svg xmlns="http://www.w3.org/2000/svg" viewBox="0 0 120 120">
  <!-- Trofie: small tapered twisted pasta pieces from Liguria -->
  <!-- Each piece is a short tapered S-twist shape -->

  <!-- Piece 1 -->
  <path d="M10 20 Q20 14 26 20 Q20 26 14 32 Q20 38 30 32"
        stroke="#F59E0B" stroke-width="5" fill="none" stroke-linecap="round"/>

  <!-- Piece 2 -->
  <path d="M52 10 Q62 4 68 10 Q62 16 56 22 Q62 28 72 22"
        stroke="#D97706" stroke-width="5" fill="none" stroke-linecap="round"/>

  <!-- Piece 3 -->
  <path d="M88 18 Q98 12 104 18 Q98 24 92 30 Q98 36 108 30"
        stroke="#F59E0B" stroke-width="5" fill="none" stroke-linecap="round"/>

  <!-- Piece 4 -->
  <path d="M8 58 Q18 52 24 58 Q18 64 12 70 Q18 76 28 70"
        stroke="#D97706" stroke-width="5" fill="none" stroke-linecap="round"/>

  <!-- Piece 5 -->
  <path d="M44 52 Q54 46 60 52 Q54 58 48 64 Q54 70 64 64"
        stroke="#F59E0B" stroke-width="5" fill="none" stroke-linecap="round"/>

  <!-- Piece 6 -->
  <path d="M82 60 Q92 54 98 60 Q92 66 86 72 Q92 78 102 72"
        stroke="#D97706" stroke-width="5" fill="none" stroke-linecap="round"/>

  <!-- Piece 7 -->
  <path d="M10 96 Q20 90 26 96 Q20 102 14 108 Q20 114 30 108"
        stroke="#F59E0B" stroke-width="5" fill="none" stroke-linecap="round"/>

  <!-- Piece 8 -->
  <path d="M52 90 Q62 84 68 90 Q62 96 56 102 Q62 108 72 102"
        stroke="#D97706" stroke-width="5" fill="none" stroke-linecap="round"/>

  <!-- Piece 9 -->
  <path d="M88 96 Q98 90 104 96 Q98 102 92 108 Q98 114 108 108"
        stroke="#F59E0B" stroke-width="5" fill="none" stroke-linecap="round"/>
</svg>
