<svg xmlns="http://www.w3.org/2000/svg" viewBox="0 0 120 120" fill="none">
  <path d="M15 2 Q24 22 15 42 Q6 62 15 82 Q24 102 15 120" stroke="#D97706" stroke-width="4" stroke-linecap="round"/>
  <path d="M30 2 Q39 22 30 42 Q21 62 30 82 Q39 102 30 120" stroke="#F59E0B" stroke-width="4" stroke-linecap="round"/>
  <path d="M45 2 Q54 22 45 42 Q36 62 45 82 Q54 102 45 120" stroke="#D97706" stroke-width="4" stroke-linecap="round"/>
  <path d="M60 2 Q69 22 60 42 Q51 62 60 82 Q69 102 60 120" stroke="#F59E0B" stroke-width="4" stroke-linecap="round"/>
  <path d="M75 2 Q84 22 75 42 Q66 62 75 82 Q84 102 75 120" stroke="#D97706" stroke-width="4" stroke-linecap="round"/>
  <path d="M90 2 Q99 22 90 42 Q81 62 90 82 Q99 102 90 120" stroke="#F59E0B" stroke-width="4" stroke-linecap="round"/>
  <path d="M105 2 Q114 22 105 42 Q96 62 105 82 Q114 102 105 120" stroke="#D97706" stroke-width="4" stroke-linecap="round"/>
</svg>
